<?xml version="1.0" encoding="utf-8"?>
<!-- Generator: Adobe Illustrator 15.1.0, SVG Export Plug-In . SVG Version: 6.00 Build 0)  -->
<!DOCTYPE svg PUBLIC "-//W3C//DTD SVG 1.1//EN" "http://www.w3.org/Graphics/SVG/1.1/DTD/svg11.dtd">
<svg version="1.1" id="sunny" xmlns="http://www.w3.org/2000/svg" xmlns:xlink="http://www.w3.org/1999/xlink" x="0px" y="0px"
	 width="165px" height="139px" viewBox="0 0 165 139" enable-background="new 0 0 165 139" xml:space="preserve">
<g>
	<path fill-rule="evenodd" clip-rule="evenodd" fill="#FFFFFF" d="M118.07,47.467c0,2.011,0,4.023,0,6.033c-0.066,0-0.134,0-0.2,0
		c-1.858,13.217-10.974,23.648-25.548,24.742c-4.938,0.373-10.384,0.168-16.492,0.199c-10.588,0.061-21.914,0.605-32.99,0.605
		c-11.354,0-22.218-0.469-28.965-4.625C7.383,70.42,2.112,64.078,1,55.512c0-1.943,0-3.889,0-5.833
		c2.711-12.712,10.178-20.667,25.748-20.517C31.344,12.336,42.617,1.683,62.753,1c0.068,0,0.134,0,0.202,0
		c17.098,2.146,27.688,10.799,31.581,26.149C108.255,27.858,116.229,36.193,118.07,47.467z M88.301,51.49
		c-2.136-0.047-4.868-2.17-5.229-4.627c-0.243-1.637,0.647-3.205,1.005-5.029c2.221-11.391-1.574-20.212-8.448-25.346
		c-3.951-2.949-9.833-5.129-16.294-4.626C47.65,12.771,39.76,21.127,37.207,31.979c1.572,1.713,4.186,3.01,6.035,5.229
		c1.663,1.996,3.901,4.898,3.621,8.047c-0.252,2.822-2.759,5.154-6.034,4.828c-4.603-0.46-4.87-5.457-7.646-7.645
		c-3.725-2.936-10.096-3.262-14.281-1.407c-5.693,2.521-8.713,9.604-6.438,16.694c1.15,3.582,6.817,8.021,11.064,9.254
		c9.311,2.703,21.46,1.006,33.594,1.006c6.105,0,12.004-0.201,17.498-0.201c8.543,0,18.434,0.631,23.536-2.012
		c5.958-3.086,11.783-12.52,8.448-20.518c-1.715-4.111-5.853-6.223-11.267-7.442C94.483,42.188,95.184,51.639,88.301,51.49z"/>
</g>
</svg>
