<?xml version="1.0" encoding="utf-8"?>
<!-- Generator: Adobe Illustrator 15.1.0, SVG Export Plug-In . SVG Version: 6.00 Build 0)  -->
<!DOCTYPE svg PUBLIC "-//W3C//DTD SVG 1.1//EN" "http://www.w3.org/Graphics/SVG/1.1/DTD/svg11.dtd">
<svg version="1.1" id="sunny" xmlns="http://www.w3.org/2000/svg" xmlns:xlink="http://www.w3.org/1999/xlink" x="0px" y="0px"
	 width="125px" height="145px" viewBox="0 0 125 145" enable-background="new 0 0 125 145" xml:space="preserve">
<path fill="#00ADEE" d="M54.416,98.187c-5.78-3.39-7.691-11.752-4.086-17.902c3.158-5.381,19.658-14.229,21.531-15.223l2.861-1.513
	l0.074,3.236c0.053,2.116,0.385,20.84-2.77,26.222C68.423,99.153,60.191,101.576,54.416,98.187L54.416,98.187z"/>
<path fill="#00ADEE" d="M30.54,138.076c-5.78-3.389-7.69-11.751-4.085-17.902c3.156-5.382,19.658-14.23,21.529-15.223l2.862-1.513
	l0.075,3.237c0.053,2.115,0.385,20.839-2.771,26.221C44.548,139.043,36.315,141.466,30.54,138.076L30.54,138.076z"/>
<path fill-rule="evenodd" clip-rule="evenodd" fill="#FFFFFF" d="M1,54.77c0-1.408,0-2.816,0-4.225
	C3.002,37.702,11.443,28.56,26.948,29.224C30.662,14.577,40.385,3.899,55.713,1.465c17.078-2.712,31.289,6.813,36.812,18.907
	c0.908,1.988,1.508,4.229,2.01,6.639c16.186,1.351,26.713,12.75,22.932,29.569c-2.705,12.043-12.133,21.725-27.758,21.725
	c-5.949,0-13.41,1.078-12.27-6.034c1.17-7.311,11.021-3.147,17.902-5.229c4.121-1.25,8.441-4.818,10.459-9.053
	c1.535-3.221,2.541-8.878,0.805-12.873c-1.703-3.924-6.043-6.163-11.064-7.241c-1.084,4.213-0.205,13.14-6.637,13.477
	c-2.955,0.154-4.949-1.358-5.633-4.426c-0.527-2.362,0.83-5.236,1.006-7.041c0.459-4.678,0.625-10.008-1.209-14.481
	C80.32,18.687,72.41,12.661,63.96,11.925c-11.683-1.02-18.98,4.888-23.334,11.666c-1.075,1.678-3.845,6.074-3.219,8.449
	c0.28,1.061,1.768,1.41,3.019,2.413c2.24,1.798,6.744,6.692,6.638,10.46c-0.084,2.972-2.989,5.695-6.638,5.029
	c-4.148-0.758-3.337-4.142-6.638-7.041c-0.741-0.651-2.675-1.902-4.224-2.413C18.27,36.763,7.667,47.819,13.07,58.592
	c4.268,8.509,13.332,9.133,25.745,9.655c4.423,0.187,8.858,1.009,8.651,5.833c-0.287,6.659-9.461,5.085-16.295,4.625
	C13.875,77.548,3.352,70.015,1,54.77z"/>
</svg>
