<?xml version="1.0" encoding="utf-8"?>
<!-- Generator: Adobe Illustrator 15.1.0, SVG Export Plug-In . SVG Version: 6.00 Build 0)  -->
<!DOCTYPE svg PUBLIC "-//W3C//DTD SVG 1.1//EN" "http://www.w3.org/Graphics/SVG/1.1/DTD/svg11.dtd">
<svg version="1.1" id="sunny" xmlns="http://www.w3.org/2000/svg" xmlns:xlink="http://www.w3.org/1999/xlink" x="0px" y="0px"
	 width="125px" height="145px" viewBox="0 0 125 145" enable-background="new 0 0 125 145" xml:space="preserve">
<g>
	<g>
		<polygon fill="#FFFFFF" points="76.774,97.525 69.134,93.127 76.759,88.695 73.597,83.262 66.003,87.676 66.003,78.889 
			59.716,78.889 59.716,87.701 52.082,83.307 48.942,88.752 56.584,93.152 48.961,97.582 52.12,103.018 59.716,98.602 
			59.716,107.387 66.003,107.387 66.003,98.576 73.638,102.975 		"/>
		<polygon fill="#FFFFFF" points="55.089,129.061 47.448,124.662 55.071,120.23 51.911,114.793 44.315,119.211 44.315,110.426 
			38.028,110.426 38.028,119.238 30.395,114.84 27.258,120.287 34.896,124.688 27.273,129.115 30.436,134.553 38.028,130.135 
			38.028,138.922 44.315,138.922 44.315,130.111 51.95,134.506 		"/>
	</g>
	<path fill-rule="evenodd" clip-rule="evenodd" fill="#FFFFFF" d="M1,54.77c0-1.408,0-2.816,0-4.225
		c2.002-12.844,10.445-21.986,25.95-21.322C30.665,14.578,40.388,3.898,55.715,1.465c17.076-2.713,31.289,6.814,36.812,18.907
		c0.905,1.987,1.506,4.229,2.011,6.639c16.183,1.351,26.71,12.749,22.93,29.569c-2.705,12.043-12.132,21.725-27.759,21.725
		c-5.946,0-13.41,1.08-12.271-6.033c1.172-7.312,11.021-3.148,17.904-5.232c4.122-1.248,8.439-4.816,10.46-9.051
		c1.535-3.223,2.538-8.879,0.803-12.874c-1.704-3.924-6.044-6.162-11.062-7.241c-1.087,4.214-0.204,13.14-6.638,13.477
		c-2.955,0.154-4.947-1.357-5.632-4.424c-0.528-2.363,0.828-5.238,1.005-7.041c0.46-4.68,0.624-10.01-1.207-14.483
		c-2.748-6.714-10.66-12.741-19.11-13.478c-11.684-1.019-18.98,4.889-23.333,11.667c-1.075,1.677-3.844,6.075-3.219,8.448
		c0.28,1.061,1.768,1.41,3.017,2.414c2.243,1.799,6.747,6.691,6.638,10.46c-0.082,2.972-2.989,5.694-6.638,5.028
		c-4.149-0.758-3.335-4.141-6.638-7.041c-0.741-0.65-2.675-1.902-4.222-2.412C18.27,36.764,7.669,47.819,13.069,58.592
		c4.268,8.508,13.335,9.131,25.748,9.654c4.42,0.188,8.858,1.01,8.648,5.834c-0.286,6.66-9.46,5.084-16.291,4.627
		C13.877,77.547,3.352,70.014,1,54.77z"/>
</g>
</svg>
