<?xml version="1.0" encoding="utf-8"?>
<!-- Generator: Adobe Illustrator 15.1.0, SVG Export Plug-In . SVG Version: 6.00 Build 0)  -->
<!DOCTYPE svg PUBLIC "-//W3C//DTD SVG 1.1//EN" "http://www.w3.org/Graphics/SVG/1.1/DTD/svg11.dtd">
<svg version="1.1" id="sunny" xmlns="http://www.w3.org/2000/svg" xmlns:xlink="http://www.w3.org/1999/xlink" x="0px" y="0px"
	 width="165px" height="139px" viewBox="0 0 165 139" enable-background="new 0 0 165 139" xml:space="preserve">
<g>
	<path fill="#00ADEE" d="M54.3,97.896c-5.779-3.391-7.69-11.752-4.085-17.902c3.157-5.381,19.658-14.23,21.53-15.225l2.862-1.512
		l0.074,3.236c0.053,2.115,0.385,20.84-2.771,26.223C68.309,98.863,60.076,101.285,54.3,97.896L54.3,97.896z"/>
	<path fill-rule="evenodd" clip-rule="evenodd" fill="#FFFFFF" d="M1,54.769c0-1.408,0-2.816,0-4.225
		c2.002-12.843,10.443-21.984,25.948-21.32c3.718-14.646,13.438-25.325,28.767-27.76c17.077-2.711,31.287,6.814,36.811,18.908
		c0.907,1.988,1.506,4.228,2.011,6.638c16.185,1.351,26.71,12.75,22.932,29.569c-2.707,12.043-12.134,21.725-27.759,21.725
		c-5.948,0-13.412,1.078-12.27-6.033c1.169-7.311,11.021-3.148,17.902-5.23c4.121-1.25,8.439-4.818,10.459-9.053
		c1.538-3.221,2.539-8.878,0.806-12.873c-1.706-3.924-6.047-6.162-11.064-7.241c-1.088,4.214-0.205,13.14-6.638,13.477
		c-2.953,0.155-4.945-1.358-5.633-4.425c-0.527-2.363,0.828-5.236,1.006-7.041c0.459-4.678,0.623-10.009-1.206-14.482
		c-2.75-6.715-10.659-12.74-19.11-13.478c-11.686-1.019-18.982,4.888-23.332,11.667c-1.078,1.677-3.847,6.074-3.221,8.449
		c0.279,1.06,1.77,1.41,3.019,2.412c2.24,1.799,6.744,6.693,6.638,10.46c-0.084,2.972-2.989,5.696-6.638,5.03
		c-4.149-0.758-3.337-4.143-6.638-7.041c-0.744-0.652-2.676-1.902-4.225-2.414C18.271,36.763,7.668,47.82,13.07,58.591
		c4.266,8.51,13.332,9.133,25.748,9.656c4.418,0.186,8.857,1.008,8.648,5.832c-0.286,6.66-9.463,5.086-16.294,4.625
		C13.876,77.548,3.353,70.015,1,54.769z"/>
</g>
</svg>
