<?xml version="1.0" encoding="utf-8"?>
<!-- Generator: Adobe Illustrator 15.1.0, SVG Export Plug-In . SVG Version: 6.00 Build 0)  -->
<!DOCTYPE svg PUBLIC "-//W3C//DTD SVG 1.1//EN" "http://www.w3.org/Graphics/SVG/1.1/DTD/svg11.dtd">
<svg version="1.1" id="sunny" xmlns="http://www.w3.org/2000/svg" xmlns:xlink="http://www.w3.org/1999/xlink" x="0px" y="0px"
	 width="125px" height="145px" viewBox="0 0 125 145" enable-background="new 0 0 125 145" xml:space="preserve">
<g>
	<path fill-rule="evenodd" clip-rule="evenodd" fill="#F9EC31" d="M59.11,60.557l17.55-0.166L63.91,83.074l17.484-0.191
		L53.15,127.445c0,0-1.808,0.305-2.386-1.477c-0.58-1.777,0.979-5.203,0.979-5.203l10.68-27.76H42.719L59.11,60.557z"/>
	<path fill-rule="evenodd" clip-rule="evenodd" fill="#FFFFFF" d="M1,54.77c0-1.408,0-2.816,0-4.225
		c2.002-12.844,10.445-21.986,25.948-21.322C30.662,14.578,40.385,3.898,55.712,1.465c17.079-2.713,31.289,6.814,36.812,18.907
		c0.908,1.987,1.509,4.229,2.011,6.639c16.186,1.351,26.713,12.749,22.933,29.569c-2.707,12.043-12.134,21.725-27.76,21.725
		c-5.948,0-13.409,1.08-12.27-6.033c1.172-7.312,11.021-3.148,17.902-5.232c4.124-1.248,8.441-4.816,10.459-9.051
		c1.536-3.223,2.541-8.879,0.806-12.874c-1.704-3.924-6.044-6.162-11.064-7.241c-1.085,4.214-0.205,13.14-6.638,13.477
		c-2.955,0.154-4.945-1.357-5.633-4.424c-0.527-2.363,0.831-5.238,1.008-7.041c0.457-4.68,0.624-10.01-1.208-14.483
		c-2.75-6.714-10.661-12.741-19.11-13.478c-11.683-1.019-18.98,4.889-23.334,11.667c-1.076,1.677-3.845,6.075-3.217,8.448
		c0.277,1.061,1.766,1.41,3.017,2.414c2.24,1.799,6.745,6.691,6.638,10.46c-0.084,2.972-2.989,5.694-6.638,5.028
		c-4.149-0.758-3.337-4.141-6.638-7.041c-0.741-0.65-2.675-1.902-4.225-2.412C18.27,36.764,7.667,47.819,13.069,58.592
		c4.268,8.508,13.333,9.131,25.746,9.654c4.422,0.188,8.857,1.01,8.65,5.834c-0.286,6.66-9.46,5.084-16.294,4.627
		C13.875,77.547,3.352,70.014,1,54.77z"/>
</g>
</svg>
