<?xml version="1.0" encoding="utf-8"?>
<!-- Generator: Adobe Illustrator 15.1.0, SVG Export Plug-In . SVG Version: 6.00 Build 0)  -->
<!DOCTYPE svg PUBLIC "-//W3C//DTD SVG 1.1//EN" "http://www.w3.org/Graphics/SVG/1.1/DTD/svg11.dtd">
<svg version="1.1" id="Layer_1" xmlns="http://www.w3.org/2000/svg" xmlns:xlink="http://www.w3.org/1999/xlink" x="0px" y="0px"
	 width="139.25px" height="35.17px" viewBox="0 0 139.25 35.17" enable-background="new 0 0 139.25 35.17" xml:space="preserve">
<g>
	<path fill="#002B42" d="M33.793,9.599l0.217,5.757l7.868-0.297l0.056,1.486l-7.868,0.297l0.258,6.836l8.251-0.312l0.056,1.487
		l-9.019,0.341c-0.48,0.018-0.774-0.139-0.798-0.787L32.234,9.009c-0.01-0.264,0.041-0.842,0.712-0.868l9.09-0.343l0.056,1.487
		L33.793,9.599z"/>
	<path fill="#002B42" d="M52.345,24.487l-0.365-9.666l-5.828,0.22l0.365,9.666l-1.439,0.054l-0.417-11.033l8.73-0.33l0.417,11.033
		L52.345,24.487z"/>
	<path fill="#002B42" d="M61.629,24.232c-3.094,0.116-5.707-2.282-5.824-5.4c-0.122-3.213,2.329-5.756,5.495-5.875l2.95-0.111
		l0.053,1.391l-2.95,0.111c-2.111,0.08-3.756,1.655-3.991,3.706l6.644-0.25l0.049,1.294l-6.668,0.252
		c0.341,2.029,2.177,3.592,4.216,3.516l3.022-0.114l0.052,1.367L61.629,24.232z"/>
	<path fill="#002B42" d="M66.949,23.936l-0.417-11.033l1.439-0.054l0.417,11.034L66.949,23.936z"/>
	<path fill="#002B42" d="M76.478,23.769c-3.021,0.114-5.588-2.336-5.704-5.406c-0.098-2.59,1.546-4.861,3.899-5.527
		c-1.197-0.507-2.066-1.291-2.113-2.515c-0.102-2.71,2.537-3.41,3.641-3.451l2.903-0.086l0.052,1.392l-2.47,0.093
		c-1.367,0.052-2.542,0.769-2.521,1.921c0.062,1.63,3.728,2.044,5.511,3.443c1.385,1.077,2.184,2.511,2.253,4.334
		C82.046,21.108,79.644,23.649,76.478,23.769z M76.202,13.931c-2.23,0.084-4.028,2.073-3.941,4.375
		c0.086,2.278,2.006,4.128,4.188,4.046c2.303-0.087,4.079-2.028,3.992-4.33C80.352,15.671,78.433,13.847,76.202,13.931z"/>
	<path fill="#002B42" d="M92.586,22.943l-0.208-5.517c-0.056-1.463-0.25-2.152-0.684-2.832c-0.611-0.914-1.641-1.475-2.792-1.432
		c-1.224,0.046-2.208,0.708-2.722,1.711c-0.336,0.662-0.461,1.147-0.419,2.274l0.228,6.043l-1.438,0.055l-0.416-11.009l1.438-0.054
		l0.051,1.343c0.803-1.014,2.171-1.667,3.202-1.706c1.655-0.062,3.246,0.719,4.137,2.03c0.535,0.845,0.766,1.844,0.823,3.379
		l0.214,5.66L92.586,22.943z M88.659,10.554l-1.271,0.024l0.932-3.927l1.393-0.053L88.659,10.554z"/>
	<path fill="#002B42" d="M97.749,24.862l-1.343,0.051l0.931-3.975l1.607-0.061L97.749,24.862z"/>
</g>
</svg>
