<?xml version="1.0" encoding="utf-8"?>
<!-- Generator: Adobe Illustrator 15.1.0, SVG Export Plug-In . SVG Version: 6.00 Build 0)  -->
<!DOCTYPE svg PUBLIC "-//W3C//DTD SVG 1.1//EN" "http://www.w3.org/Graphics/SVG/1.1/DTD/svg11.dtd">
<svg version="1.1" id="Layer_1" xmlns="http://www.w3.org/2000/svg" xmlns:xlink="http://www.w3.org/1999/xlink" x="0px" y="0px"
	 width="137.5px" height="36.506px" viewBox="0 0 137.5 36.506" enable-background="new 0 0 137.5 36.506" xml:space="preserve">
<g>
	<path fill="#0E2B40" d="M21.948,21.877c-0.168,0.36-0.264,0.624-0.36,0.816v6.167h-1.44v-6.071c-0.12-0.216-0.24-0.528-0.432-0.984
		c-0.408-0.888-3.721-8.4-4.104-9.265h1.536l3.72,8.353l3.648-8.353h1.536C25.668,13.404,22.308,20.94,21.948,21.877z"/>
	<path fill="#0E2B40" d="M31.692,23.869c-1.632,0-3.072-0.816-3.912-2.16c-0.6-0.984-0.768-1.8-0.768-3.721v-5.4h1.44v5.448
		c0,1.585,0.12,2.089,0.504,2.809c0.552,1.032,1.584,1.632,2.76,1.632c1.152,0,2.16-0.575,2.712-1.536
		c0.456-0.744,0.576-1.439,0.576-2.904v-5.448h1.44v5.593c0,1.536-0.168,2.616-0.72,3.48C34.932,23.005,33.324,23.869,31.692,23.869
		z"/>
	<path fill="#0E2B40" d="M44.052,23.773c-1.824,0-3.265-0.744-4.321-2.185v7.271h-1.44v-9.912c0-1.896,0.168-2.784,0.816-3.888
		c1.032-1.729,2.88-2.761,4.92-2.761c3.168,0,5.688,2.521,5.688,5.761C49.716,21.253,47.22,23.773,44.052,23.773z M44.027,13.692
		c-2.328,0-4.272,1.944-4.272,4.272c0,2.472,1.848,4.416,4.248,4.416c2.328,0,4.272-1.92,4.272-4.32S46.332,13.692,44.027,13.692z"
		/>
	<path fill="#0E2B40" d="M52.715,11.028l-1.272-0.024L52.5,7.115h1.392L52.715,11.028z M51.563,23.581V12.54h1.44v11.041H51.563z"/>
	<path fill="#0E2B40" d="M63.996,13.933c1.32,0.936,2.111,2.424,2.111,4.248c0,3.145-2.52,5.593-5.712,5.593
		c-3.048,0-5.521-2.521-5.521-5.617c0-3.168,2.496-5.616,5.617-5.616h0.359h5.713v1.393H63.996z M60.492,13.933
		c-2.305,0-4.152,1.848-4.152,4.224c0,2.305,1.896,4.225,4.08,4.225c2.304,0,4.225-1.872,4.225-4.2
		C64.645,15.78,62.796,13.933,60.492,13.933z"/>
	<path fill="#0E2B40" d="M77.604,23.581H76.14v-1.44c-0.984,1.128-2.112,1.681-3.409,1.681c-1.248,0-2.447-0.553-3.144-1.488v6.527
		h-1.44V12.564h1.44v5.76c0,1.225,0.144,1.872,0.528,2.568c0.552,0.984,1.607,1.608,2.76,1.608c1.176,0,2.28-0.648,2.832-1.704
		c0.312-0.648,0.457-1.152,0.457-2.208v-6.024h1.439V23.581z"/>
	<path fill="#0E2B40" d="M89.314,23.581v-2.064c-1.056,1.513-2.496,2.257-4.296,2.257c-3.169,0-5.688-2.521-5.688-5.713
		c0-3.24,2.52-5.761,5.713-5.761c2.016,0,3.863,1.032,4.896,2.761c0.647,1.104,0.815,1.992,0.815,3.888v4.633H89.314z
		 M85.091,13.692c-2.4,0-4.321,1.944-4.321,4.368c0,2.4,1.945,4.32,4.273,4.32s4.248-1.92,4.248-4.248
		C89.291,15.637,87.419,13.692,85.091,13.692z"/>
	<path fill="#0E2B40" d="M98.074,22.237h0.145v1.344h-0.191c-1.561,0-2.496-0.36-3.24-1.152c-0.648-0.744-0.961-1.8-0.961-3.168
		v-5.328h-1.969V12.54h6.266v1.393h-2.832v1.536c0,1.176-0.025,2.328-0.025,3.096v0.552C95.266,21.205,95.867,22.237,98.074,22.237z
		"/>
	<path fill="#0E2B40" d="M108.826,23.581v-2.064c-1.055,1.513-2.496,2.257-4.295,2.257c-3.17,0-5.689-2.521-5.689-5.713
		c0-3.24,2.52-5.761,5.713-5.761c2.016,0,3.863,1.032,4.896,2.761c0.648,1.104,0.816,1.992,0.816,3.888v4.633H108.826z
		 M104.602,13.692c-2.4,0-4.32,1.944-4.32,4.368c0,2.4,1.945,4.32,4.273,4.32s4.248-1.92,4.248-4.248
		C108.803,15.637,106.93,13.692,104.602,13.692z"/>
</g>
</svg>
