<?xml version="1.0" encoding="utf-8"?>
<!-- Generator: Adobe Illustrator 15.1.0, SVG Export Plug-In . SVG Version: 6.00 Build 0)  -->
<!DOCTYPE svg PUBLIC "-//W3C//DTD SVG 1.1//EN" "http://www.w3.org/Graphics/SVG/1.1/DTD/svg11.dtd">
<svg version="1.1" id="Layer_1" xmlns="http://www.w3.org/2000/svg" xmlns:xlink="http://www.w3.org/1999/xlink" x="0px" y="0px"
	 width="245px" height="51.67px" viewBox="0 0 245 51.67" enable-background="new 0 0 245 51.67" xml:space="preserve">
<g>
	<path fill="#0E2B40" d="M67.759,38.441c-3.089,0.207-5.771-2.114-5.98-5.228c-0.215-3.209,2.159-5.821,5.32-6.034l2.946-0.198
		l0.093,1.389l-2.946,0.198c-2.107,0.142-3.706,1.765-3.881,3.821l6.634-0.445l0.086,1.293l-6.657,0.447
		c0.4,2.018,2.282,3.526,4.317,3.391l3.017-0.203l0.092,1.365L67.759,38.441z M66.936,25.819l-1.271,0.061l0.817-3.952l1.389-0.093
		L66.936,25.819z"/>
	<path fill="#0E2B40" d="M78.816,37.602l-3.364-4.248l-2.791,4.662l-1.748,0.117l3.591-5.99l-3.972-5.051l1.676-0.112l3.074,3.86
		l2.578-4.239l1.724-0.116l-3.333,5.541l4.288,5.461L78.816,37.602z"/>
	<path fill="#0E2B40" d="M86.533,37.18c-3.089,0.207-5.771-2.114-5.98-5.227c-0.215-3.209,2.159-5.822,5.32-6.035l2.947-0.197
		l0.093,1.389l-2.946,0.197c-2.107,0.143-3.707,1.766-3.881,3.822l6.633-0.445l0.087,1.293l-6.658,0.447
		c0.401,2.018,2.282,3.525,4.318,3.389l3.018-0.201l0.092,1.365L86.533,37.18z"/>
	<path fill="#0E2B40" d="M91.243,36.768l-0.74-11.016l1.437-0.098l0.74,11.017L91.243,36.768z"/>
	<path fill="#0E2B40" d="M105.552,36c-3.089,0.207-5.777-2.211-5.987-5.324c-0.215-3.208,2.129-5.916,5.313-6.13
		c3.162-0.212,5.845,2.134,6.063,5.392C111.154,33.098,108.737,35.787,105.552,36z M104.972,25.936
		c-2.323,0.156-4.108,2.225-3.946,4.643c0.156,2.323,2.229,4.18,4.456,4.031c2.371-0.16,4.158-2.204,3.999-4.574
		C109.317,27.592,107.271,25.782,104.972,25.936z"/>
	<path fill="#0E2B40" d="M126.383,23.875c0.289-0.02,0.545,0.036,0.799,0.055c1.789,0.312,3.199,1.444,4.057,2.938
		c0.613,1.078,0.842,2.324,0.945,3.869l0.219,3.268l-3.41,0.229l-0.209-3.089c-0.076-1.148-0.246-2.076-0.736-2.908
		c-0.605-0.969-1.59-1.66-2.883-1.574c-1.975,0.133-3.186,1.981-3.031,4.28l0.248,3.698l-3.448,0.232l-1.114-16.593l3.449-0.232
		l0.434,6.465l5.561-6.904l4.238-0.284L126.383,23.875z"/>
	<path fill="#0E2B40" d="M148.424,32.93l-0.137-2.012c-1.357,1.786-3.008,2.475-5.02,2.609c-4.775,0.321-8.803-3.232-9.123-8.01
		c-0.322-4.812,3.229-8.875,8.004-9.196c3.018-0.203,5.926,1.189,7.643,3.672c1.078,1.551,1.424,2.935,1.602,5.592l0.479,7.111
		L148.424,32.93z M142.447,19.693c-2.836,0.19-5.012,2.718-4.818,5.591c0.191,2.872,2.719,5.048,5.449,4.864
		c2.729-0.183,4.945-2.641,4.758-5.442C147.633,21.691,145.213,19.508,142.447,19.693z"/>
	<path fill="#0E2B40" d="M154.926,32.493l-1.117-16.628l3.447-0.231l1.117,16.628L154.926,32.493z"/>
	<path fill="#0E2B40" d="M170.172,31.721c-2.049,0.139-3.818-0.428-5.309-1.663l0.65,9.661l-3.484,0.233l-1.008-15.012
		c-0.178-2.659,0.018-4.042,0.875-5.759c1.299-2.685,4.031-4.456,7.084-4.661c4.74-0.318,8.803,3.233,9.125,8.046
		C178.426,27.343,174.912,31.403,170.172,31.721z M169.207,17.897c-2.801,0.188-4.941,2.713-4.756,5.479
		c0.203,3.017,2.584,5.166,5.42,4.975c2.768-0.186,4.98-2.68,4.787-5.552C174.465,19.925,171.936,17.714,169.207,17.897z"/>
	<path fill="#0E2B40" d="M188.381,30.499c-4.631,0.312-8.664-3.314-8.979-8.018c-0.318-4.742,3.191-8.874,7.969-9.194
		s8.801,3.198,9.129,8.081C196.82,26.145,193.23,30.173,188.381,30.499z M187.598,16.663c-2.766,0.185-4.908,2.674-4.713,5.583
		c0.191,2.837,2.721,5.048,5.307,4.875c2.908-0.195,5.016-2.682,4.824-5.519C192.818,18.657,190.363,16.477,187.598,16.663z
		 M188.504,11.371l-2.947,0.162l1.371-6.442l3.27-0.219L188.504,11.371z"/>
	<path fill="#0E2B40" d="M208.457,12.989l-0.822,2.796c-1.334-0.523-2.355-0.707-3.506-0.63c-1.543,0.104-2.646,0.863-2.568,2.048
		c0.07,1.042,0.895,1.492,2.547,1.922c2.643,0.652,4.4,1.581,4.969,4.14c0.383,1.958-0.176,3.836-1.789,5.063
		c-0.961,0.75-2.229,1.195-3.701,1.293c-1.58,0.107-3.693-0.184-5.445-1.04l0.961-2.878c1.674,0.753,2.561,1.054,3.961,0.96
		c1.256-0.085,2.197-0.58,2.533-1.505c0.387-1.216-0.074-2.159-2.131-2.707c-0.699-0.206-1.582-0.47-2.625-0.941
		c-1.639-0.756-2.619-1.953-2.746-3.821c-0.195-2.909,2.068-5.225,5.623-5.464C204.9,12.146,206.822,12.269,208.457,12.989z"/>
</g>
</svg>
