<?xml version="1.0" encoding="utf-8"?>
<!-- Generator: Adobe Illustrator 15.1.0, SVG Export Plug-In . SVG Version: 6.00 Build 0)  -->
<!DOCTYPE svg PUBLIC "-//W3C//DTD SVG 1.1//EN" "http://www.w3.org/Graphics/SVG/1.1/DTD/svg11.dtd">
<svg version="1.1" id="Layer_1" xmlns="http://www.w3.org/2000/svg" xmlns:xlink="http://www.w3.org/1999/xlink" x="0px" y="0px"
	 width="146.833px" height="39.84px" viewBox="0 0 146.833 39.84" enable-background="new 0 0 146.833 39.84" xml:space="preserve">
<g>
	<path fill="#FDFFEC" d="M14.476,15.277V3.592H7.85v11.686H6.715V2.476h8.913v12.802H14.476z"/>
	<path fill="#FDFFEC" d="M22.358,15.422c-1.368,0-2.449-0.559-3.241-1.639v5.455h-1.081v-7.436c0-1.423,0.126-2.089,0.612-2.917
		c0.774-1.297,2.161-2.071,3.691-2.071c2.376,0,4.267,1.891,4.267,4.321C26.608,13.531,24.735,15.422,22.358,15.422z M22.341,7.859
		c-1.747,0-3.205,1.458-3.205,3.205c0,1.854,1.386,3.312,3.187,3.312c1.747,0,3.205-1.44,3.205-3.241
		C25.527,9.336,24.069,7.859,22.341,7.859z"/>
	<path fill="#FDFFEC" d="M31.971,15.422c-2.305,0-4.195-1.945-4.195-4.286c0-2.412,1.891-4.321,4.267-4.321
		c2.395,0,4.286,1.891,4.286,4.34C36.328,13.531,34.401,15.422,31.971,15.422z M32.042,7.859c-1.729,0-3.169,1.458-3.169,3.276
		c0,1.747,1.458,3.241,3.115,3.241c1.8,0,3.241-1.44,3.241-3.223C35.229,9.317,33.789,7.859,32.042,7.859z M32.385,5.86
		l-0.972-0.018l0.81-2.917h1.044L32.385,5.86z"/>
	<path fill="#FDFFEC" d="M41.762,13.999c-0.126,0.271-0.198,0.468-0.27,0.612v4.627h-1.08v-4.555
		c-0.09-0.162-0.18-0.396-0.324-0.738c-0.306-0.667-2.791-6.303-3.079-6.95h1.152l2.791,6.266l2.737-6.266h1.152
		C44.553,7.643,42.032,13.297,41.762,13.999z"/>
	<path fill="#FDFFEC" d="M49.682,14.413c-0.342,0.792-0.396,1.009-0.81,1.009c-0.378,0-0.45-0.217-0.792-1.062l-3.097-7.364h1.135
		l2.791,6.571l2.737-6.571h1.152L49.682,14.413z"/>
	<path fill="#FDFFEC" d="M65.38,11.515c0,1.35-0.18,1.98-0.612,2.664c-0.522,0.774-1.44,1.297-2.502,1.297
		c-1.062,0-1.963-0.486-2.629-1.477c-0.576,0.937-1.548,1.477-2.647,1.477c-0.954,0-1.909-0.469-2.467-1.242
		c-0.486-0.667-0.648-1.351-0.648-2.629V6.995h1.08v4.411c0,1.387,0.271,3.024,2.071,3.024c0.666,0,1.278-0.342,1.621-0.864
		c0.306-0.485,0.432-1.08,0.432-1.998V7.913h1.08v3.619c0,0.847,0.09,1.404,0.36,1.891c0.342,0.63,0.99,1.008,1.729,1.008
		c0.792,0,1.494-0.504,1.8-1.206c0.198-0.45,0.252-0.937,0.252-1.71v-4.52h1.081V11.515z"/>
	<path fill="#FDFFEC" d="M73.749,8.039c0.99,0.702,1.584,1.818,1.584,3.188c0,2.358-1.89,4.195-4.285,4.195
		c-2.287,0-4.141-1.891-4.141-4.214c0-2.377,1.873-4.213,4.213-4.213h0.27h4.285v1.044H73.749z M71.12,8.039
		c-1.729,0-3.115,1.387-3.115,3.169c0,1.729,1.423,3.169,3.061,3.169c1.729,0,3.169-1.404,3.169-3.15
		C74.235,9.426,72.849,8.039,71.12,8.039z"/>
	<path fill="#FDFFEC" d="M83.378,15.26v-4.142c0-1.099-0.126-1.62-0.432-2.143c-0.432-0.702-1.188-1.152-2.053-1.152
		c-0.918,0-1.674,0.468-2.088,1.206c-0.27,0.486-0.378,0.847-0.378,1.692v4.538h-1.081V6.995h1.081v1.008
		c0.63-0.738,1.674-1.188,2.449-1.188c1.242,0,2.413,0.631,3.043,1.639c0.378,0.648,0.522,1.404,0.522,2.557v4.25H83.378z"/>
	<path fill="#FDFFEC" d="M95.113,10.02c0.145,0,0.271,0.036,0.396,0.055c0.882,0.216,1.548,0.828,1.926,1.602
		c0.27,0.559,0.342,1.188,0.342,1.963v1.639h-1.71v-1.549c0-0.576-0.054-1.044-0.27-1.477c-0.27-0.504-0.738-0.882-1.387-0.882
		c-0.99,0-1.656,0.882-1.656,2.034v1.855h-1.729V6.94h1.729v3.241l3.007-3.259h2.125L95.113,10.02z"/>
	<path fill="#FDFFEC" d="M106.256,15.277V14.27c-0.738,0.846-1.584,1.134-2.593,1.134c-2.395,0-4.286-1.908-4.286-4.304
		c0-2.412,1.909-4.32,4.304-4.32c1.512,0,2.917,0.792,3.691,2.088c0.486,0.811,0.612,1.513,0.612,2.845v3.565H106.256z
		 M103.717,8.472c-1.422,0-2.593,1.188-2.593,2.628c0,1.441,1.188,2.611,2.557,2.611c1.368,0,2.557-1.152,2.557-2.557
		C106.238,9.642,105.104,8.472,103.717,8.472z"/>
	<path fill="#FDFFEC" d="M109.962,15.277V6.94h1.729v8.337H109.962z"/>
	<path fill="#FDFFEC" d="M118.045,15.403c-1.026,0-1.89-0.342-2.593-1.008v4.843h-1.746v-7.526c0-1.332,0.145-2.017,0.63-2.845
		c0.738-1.296,2.161-2.088,3.691-2.088c2.377,0,4.285,1.908,4.285,4.32C122.312,13.495,120.422,15.403,118.045,15.403z
		 M118.027,8.472c-1.404,0-2.557,1.188-2.557,2.574c0,1.513,1.116,2.665,2.539,2.665c1.386,0,2.574-1.17,2.574-2.611
		C120.584,9.66,119.396,8.472,118.027,8.472z"/>
	<path fill="#FDFFEC" d="M127.621,15.403c-2.323,0-4.213-1.944-4.213-4.304c0-2.376,1.89-4.32,4.285-4.32
		c2.395,0,4.285,1.89,4.285,4.339C131.979,13.513,130.052,15.403,127.621,15.403z M127.693,8.472c-1.387,0-2.539,1.17-2.539,2.628
		c0,1.423,1.188,2.611,2.484,2.611c1.423,0,2.593-1.17,2.593-2.593C130.231,9.642,129.079,8.472,127.693,8.472z"/>
	<path fill="#FDFFEC" d="M137.143,15.493c-1.225,0-2.358-0.63-2.989-1.656c-0.485-0.774-0.594-1.423-0.594-2.737V6.923h1.765v4.213
		c0,1.062,0.09,1.314,0.288,1.729c0.306,0.576,0.864,0.919,1.566,0.919c0.63,0,1.188-0.343,1.494-0.864
		c0.271-0.414,0.342-0.828,0.342-1.783V6.923h1.765v4.304c0,1.08-0.126,1.872-0.54,2.574
		C139.609,14.827,138.421,15.493,137.143,15.493z M137.736,5.86l-1.458-0.018l0.882-3.169h1.639L137.736,5.86z"/>
	<path fill="#FDFFEC" d="M9.957,33.422c-2.305,0-4.195-1.945-4.195-4.286c0-2.412,1.891-4.321,4.267-4.321
		c2.395,0,4.285,1.891,4.285,4.34C14.313,31.531,12.387,33.422,9.957,33.422z M10.028,25.859c-1.729,0-3.169,1.458-3.169,3.276
		c0,1.747,1.458,3.241,3.115,3.241c1.8,0,3.241-1.44,3.241-3.223C13.215,27.317,11.775,25.859,10.028,25.859z M10.371,23.86
		l-0.972-0.018l0.81-2.917h1.044L10.371,23.86z"/>
	<path fill="#FDFFEC" d="M23.097,25.157v8.103h-1.08v-4.646c0-0.576-0.108-1.099-0.342-1.549c-0.378-0.72-1.116-1.242-2.143-1.242
		c-0.864,0-1.639,0.468-2.053,1.188c-0.306,0.558-0.414,1.044-0.414,2.034v4.214h-1.08v-4.286c0-1.224,0.144-1.944,0.558-2.593
		c0.576-0.954,1.71-1.566,2.881-1.566c0.99,0,1.836,0.414,2.575,1.261v-0.756c0-2.413-0.756-3.35-2.827-3.35
		c-0.594,0-1.494,0.162-2.34,0.54l-0.415-0.99c1.026-0.414,2.089-0.576,2.827-0.576C21.711,20.943,23.097,22.276,23.097,25.157z"/>
	<path fill="#FDFFEC" d="M29,33.422c-2.323,0-4.213-1.945-4.213-4.286c0-2.412,1.891-4.321,4.285-4.321
		c2.377,0,4.267,1.891,4.267,4.34C33.339,31.531,31.395,33.422,29,33.422z M29.072,25.859c-1.747,0-3.187,1.458-3.187,3.276
		c0,1.747,1.458,3.241,3.133,3.241c1.783,0,3.223-1.44,3.223-3.223C32.241,27.317,30.8,25.859,29.072,25.859z"/>
	<path fill="#FDFFEC" d="M43.472,32.27h0.108v1.008h-0.144c-1.17,0-1.873-0.271-2.431-0.864c-0.486-0.559-0.72-1.351-0.72-2.377
		v-3.997h-1.477v-1.044h4.7v1.044h-2.125v1.152c0,0.883-0.018,1.747-0.018,2.323v0.414C41.365,31.495,41.815,32.27,43.472,32.27z"/>
	<path fill="#FDFFEC" d="M48.602,33.422c-2.323,0-4.213-1.945-4.213-4.286c0-2.412,1.891-4.321,4.285-4.321
		c2.377,0,4.267,1.891,4.267,4.34C52.94,31.531,50.996,33.422,48.602,33.422z M48.673,25.859c-1.747,0-3.187,1.458-3.187,3.276
		c0,1.747,1.458,3.241,3.133,3.241c1.783,0,3.223-1.44,3.223-3.223C51.842,27.317,50.402,25.859,48.673,25.859z"/>
	<path fill="#FDFFEC" d="M58.914,32.143l4.681-4.879c0.864-0.9,1.837-1.873,1.837-3.205c0-1.494-1.243-2.736-2.773-2.736
		c-1.152,0-2.233,0.737-2.737,1.764l-0.955-0.684c0.721-1.297,2.089-2.179,3.673-2.179c2.215,0,3.943,1.656,3.943,3.853
		c0,1.531-0.882,2.558-1.855,3.584l-4.303,4.501h6.14v1.116h-7.328C58.554,33.277,58.446,32.611,58.914,32.143z"/>
	<path fill="#FDFFEC" d="M74.917,30.126v3.151h-1.134v-3.151h-5.312c-0.576,0-0.774-0.54-0.432-1.044l5.87-8.606h1.008v8.534h1.71
		v1.116H74.917z M73.783,22.654l-4.285,6.355h4.285V22.654z"/>
	<path fill="#FDFFEC" d="M89.445,29.515c0,1.35-0.18,1.98-0.612,2.664c-0.522,0.774-1.44,1.297-2.502,1.297
		c-1.062,0-1.963-0.486-2.629-1.477c-0.576,0.937-1.548,1.477-2.647,1.477c-0.954,0-1.909-0.469-2.467-1.242
		c-0.486-0.667-0.648-1.351-0.648-2.629v-4.609h1.08v4.411c0,1.387,0.271,3.024,2.071,3.024c0.666,0,1.278-0.342,1.621-0.864
		c0.306-0.485,0.432-1.08,0.432-1.998v-3.655h1.08v3.619c0,0.847,0.09,1.404,0.36,1.891c0.342,0.63,0.99,1.008,1.729,1.008
		c0.792,0,1.494-0.504,1.8-1.206c0.198-0.45,0.252-0.937,0.252-1.71v-4.52h1.081V29.515z"/>
	<path fill="#FDFFEC" d="M95.526,33.422c-1.368,0-2.449-0.559-3.241-1.639v5.455h-1.081v-7.436c0-1.423,0.126-2.089,0.612-2.917
		c0.774-1.297,2.161-2.071,3.691-2.071c2.376,0,4.267,1.891,4.267,4.321C99.776,31.531,97.903,33.422,95.526,33.422z M95.509,25.859
		c-1.747,0-3.205,1.458-3.205,3.205c0,1.854,1.386,3.312,3.187,3.312c1.747,0,3.205-1.44,3.205-3.241
		C98.695,27.336,97.237,25.859,95.509,25.859z"/>
	<path fill="#FDFFEC" d="M105.157,33.422c-2.323,0-4.213-1.945-4.213-4.286c0-2.412,1.891-4.321,4.285-4.321
		c2.377,0,4.268,1.891,4.268,4.34C109.496,31.531,107.551,33.422,105.157,33.422z M105.229,25.859c-1.747,0-3.187,1.458-3.187,3.276
		c0,1.747,1.458,3.241,3.133,3.241c1.782,0,3.223-1.44,3.223-3.223C108.397,27.317,106.957,25.859,105.229,25.859z"/>
	<path fill="#FDFFEC" d="M111.905,33.367c-0.414,0-0.72-0.306-0.72-0.72c0-0.378,0.306-0.721,0.72-0.721s0.738,0.307,0.738,0.721
		S112.284,33.367,111.905,33.367z"/>
</g>
</svg>
