<?xml version="1.0" encoding="utf-8"?>
<!-- Generator: Adobe Illustrator 15.1.0, SVG Export Plug-In . SVG Version: 6.00 Build 0)  -->
<!DOCTYPE svg PUBLIC "-//W3C//DTD SVG 1.1//EN" "http://www.w3.org/Graphics/SVG/1.1/DTD/svg11.dtd">
<svg version="1.1" id="Layer_1" xmlns="http://www.w3.org/2000/svg" xmlns:xlink="http://www.w3.org/1999/xlink" x="0px" y="0px"
	 width="149.116px" height="73.563px" viewBox="0 0 149.116 73.563" enable-background="new 0 0 149.116 73.563"
	 xml:space="preserve">
<rect fill="#2672FF" width="149.116" height="73.563"/>
<g>
	<rect x="116.229" y="20.62" fill="#FFFFFF" width="4.11" height="31.764"/>
	<rect x="108.007" y="20.62" fill="#FFFFFF" width="4.114" height="4.152"/>
	<rect x="124.454" y="20.62" fill="#FFFFFF" width="4.104" height="4.152"/>
	<polygon fill="#FFFFFF" points="32.679,36.542 20.632,52.411 42.973,52.411 42.973,48.303 28.914,48.303 37.843,36.542 
		28.904,24.787 42.973,24.782 42.973,20.682 20.619,20.682 	"/>
	<path fill="#FFFFFF" d="M74.07,52.411h4.61l2.831-5.537h18.894l2.827,5.537h4.613L90.962,19.33L74.07,52.411z M90.962,28.364
		l7.345,14.397h-14.7L90.962,28.364z"/>
	<polygon fill="#FFFFFF" points="62.638,20.62 51.589,36.328 51.437,36.542 62.466,52.254 62.582,52.411 67.6,52.411 56.458,36.542 
		67.659,20.62 	"/>
</g>
</svg>
