<?xml version="1.0" encoding="utf-8"?>
<!-- Generator: Adobe Illustrator 15.1.0, SVG Export Plug-In . SVG Version: 6.00 Build 0)  -->
<!DOCTYPE svg PUBLIC "-//W3C//DTD SVG 1.1//EN" "http://www.w3.org/Graphics/SVG/1.1/DTD/svg11.dtd">
<svg version="1.1" id="sunny" xmlns="http://www.w3.org/2000/svg" xmlns:xlink="http://www.w3.org/1999/xlink" x="0px" y="0px"
	 width="136px" height="133px" viewBox="0 0 136 133" enable-background="new 0 0 136 133" xml:space="preserve">
<g>
	<circle fill="#F9EC31" cx="64.31" cy="64.677" r="35.112"/>
	<g>
		
			<rect x="85.695" y="100.331" transform="matrix(-0.8658 0.5004 -0.5004 -0.8658 225.0267 161.5345)" fill="#F9EC31" width="10.314" height="21.225"/>
		
			<rect x="33.435" y="7.871" transform="matrix(-0.8658 0.5004 -0.5004 -0.8658 81.2552 15.1752)" fill="#F9EC31" width="10.315" height="21.224"/>
		
			<rect x="105.246" y="81.18" transform="matrix(-0.5014 0.8652 -0.8652 -0.5014 245.1804 42.2973)" fill="#F9EC31" width="10.314" height="21.223"/>
		
			<rect x="13.882" y="27.023" transform="matrix(-0.5015 0.8651 -0.8651 -0.5015 61.1479 40.0413)" fill="#F9EC31" width="10.314" height="21.226"/>
		
			<rect x="112.666" y="54.54" transform="matrix(0.0013 1 -1 0.0013 182.8203 -52.7571)" fill="#F9EC31" width="10.315" height="21.226"/>
		
			<rect x="6.462" y="53.661" transform="matrix(0.0013 1 -1 0.0013 75.8781 52.5691)" fill="#F9EC31" width="10.315" height="21.226"/>
		
			<rect x="105.811" y="28.001" transform="matrix(0.5001 0.866 -0.866 0.5001 88.9099 -76.7933)" fill="#F9EC31" width="10.316" height="21.222"/>
		
			<rect x="13.316" y="80.203" transform="matrix(0.4998 0.8661 -0.8661 0.4998 87.8971 29.4211)" fill="#F9EC31" width="10.317" height="21.224"/>
		
			<rect x="86.506" y="8.339" transform="matrix(0.8666 0.4991 -0.4991 0.8666 21.6908 -43.2184)" fill="#F9EC31" width="10.314" height="21.226"/>
		
			<rect x="32.62" y="99.863" transform="matrix(0.8666 0.4991 -0.4991 0.8666 60.1767 -4.1122)" fill="#F9EC31" width="10.316" height="21.225"/>
		<rect x="60.071" y="1" fill="#F9EC31" width="10.315" height="21.227"/>
		<rect x="59.054" y="107.201" fill="#F9EC31" width="10.318" height="21.227"/>
	</g>
</g>
</svg>
